<?xml version="1.0" encoding="utf-8"?>
<!-- Generator: Adobe Illustrator 16.0.0, SVG Export Plug-In . SVG Version: 6.00 Build 0)  -->
<!DOCTYPE svg PUBLIC "-//W3C//DTD SVG 1.1//EN" "http://www.w3.org/Graphics/SVG/1.1/DTD/svg11.dtd">
<svg version="1.1" xmlns="http://www.w3.org/2000/svg" xmlns:xlink="http://www.w3.org/1999/xlink" x="0px" y="0px" width="300px"
	 height="100px" viewBox="0 0 300 100" enable-background="new 0 0 300 100" xml:space="preserve">
<g id="Layer_1">
	<g display="none">
		<rect x="250" display="inline" fill="#DB1955" width="50" height="50"/>
		<rect x="267" y="17" display="inline" fill="#FFFFFF" width="16" height="16"/>
	</g>
</g>
<g id="Layer_2">
	<text transform="matrix(1 0 0 1 166 144)" display="none" fill="none" stroke="#000000" font-family="'PoplarStd'" font-size="50">L</text>
	
		<line fill-rule="evenodd" clip-rule="evenodd" fill="none" stroke="#0099DD" stroke-miterlimit="10" x1="22" y1="26.5" x2="26" y2="26.5"/>
	
		<line fill-rule="evenodd" clip-rule="evenodd" fill="none" stroke="#0099DD" stroke-miterlimit="10" x1="22" y1="28.5" x2="28" y2="28.5"/>
	<polygon fill-rule="evenodd" clip-rule="evenodd" fill="none" stroke="#0099DD" stroke-miterlimit="10" points="24.5,17.5 
		19.5,22.5 19.5,32.5 30.5,32.5 30.5,17.5 	"/>
	<polyline fill-rule="evenodd" clip-rule="evenodd" fill="none" stroke="#0099DD" stroke-miterlimit="10" points="24.5,17 
		24.5,22.5 19,22.5 	"/>
	<g>
		
			<rect x="69.5" y="17.5" fill-rule="evenodd" clip-rule="evenodd" fill="none" stroke="#0099DD" stroke-miterlimit="10" width="8" height="4"/>
		
			<rect x="69.5" y="24.5" fill-rule="evenodd" clip-rule="evenodd" fill="none" stroke="#0099DD" stroke-miterlimit="10" width="11" height="8"/>
		
			<line fill-rule="evenodd" clip-rule="evenodd" fill="none" stroke="#0099DD" stroke-miterlimit="10" x1="71" y1="27.5" x2="79" y2="27.5"/>
		
			<line fill-rule="evenodd" clip-rule="evenodd" fill="none" stroke="#0099DD" stroke-miterlimit="10" x1="71" y1="29.5" x2="79" y2="29.5"/>
		<polygon fill-rule="evenodd" clip-rule="evenodd" fill="none" stroke="#0099DD" stroke-miterlimit="10" points="67.5,17.5 
			67.5,32.5 82.5,32.5 82.5,20.5 79.5,17.5 		"/>
	</g>
	<g>
		
			<rect x="120.5" y="19.5" fill-rule="evenodd" clip-rule="evenodd" fill="none" stroke="#DD0000" stroke-miterlimit="10" width="9" height="13"/>
		
			<rect x="123.5" y="17.5" fill-rule="evenodd" clip-rule="evenodd" fill="none" stroke="#DD0000" stroke-miterlimit="10" width="3" height="2"/>
		
			<line fill-rule="evenodd" clip-rule="evenodd" fill="none" stroke="#DD0000" stroke-miterlimit="10" x1="119" y1="19.5" x2="131" y2="19.5"/>
		
			<line fill-rule="evenodd" clip-rule="evenodd" fill="none" stroke="#DD0000" stroke-miterlimit="10" x1="123.5" y1="23" x2="123.5" y2="29"/>
		
			<line fill-rule="evenodd" clip-rule="evenodd" fill="none" stroke="#DD0000" stroke-miterlimit="10" x1="126.5" y1="23" x2="126.5" y2="29"/>
	</g>
	<circle fill-rule="evenodd" clip-rule="evenodd" fill="none" stroke="#01BB00" stroke-miterlimit="10" cx="175" cy="25" r="7"/>
	<circle fill-rule="evenodd" clip-rule="evenodd" fill="none" stroke="#01BB00" stroke-miterlimit="10" cx="175" cy="25" r="3"/>
	
		<line fill-rule="evenodd" clip-rule="evenodd" fill="none" stroke="#FFFFFF" stroke-miterlimit="10" x1="22" y1="76.5" x2="26" y2="76.5"/>
	
		<line fill-rule="evenodd" clip-rule="evenodd" fill="none" stroke="#FFFFFF" stroke-miterlimit="10" x1="22" y1="78.5" x2="28" y2="78.5"/>
	<polygon fill-rule="evenodd" clip-rule="evenodd" fill="none" stroke="#FFFFFF" stroke-miterlimit="10" points="24.5,67.5 
		19.5,72.5 19.5,82.5 30.5,82.5 30.5,67.5 	"/>
	<polyline fill-rule="evenodd" clip-rule="evenodd" fill="none" stroke="#FFFFFF" stroke-miterlimit="10" points="24.5,67 
		24.5,72.5 19,72.5 	"/>
	<g>
		
			<rect x="69.5" y="67.5" fill-rule="evenodd" clip-rule="evenodd" fill="none" stroke="#FFFFFF" stroke-miterlimit="10" width="8" height="4"/>
		
			<rect x="69.5" y="74.5" fill-rule="evenodd" clip-rule="evenodd" fill="none" stroke="#FFFFFF" stroke-miterlimit="10" width="11" height="8"/>
		
			<line fill-rule="evenodd" clip-rule="evenodd" fill="none" stroke="#FFFFFF" stroke-miterlimit="10" x1="71" y1="77.5" x2="79" y2="77.5"/>
		
			<line fill-rule="evenodd" clip-rule="evenodd" fill="none" stroke="#FFFFFF" stroke-miterlimit="10" x1="71" y1="79.5" x2="79" y2="79.5"/>
		<polygon fill-rule="evenodd" clip-rule="evenodd" fill="none" stroke="#FFFFFF" stroke-miterlimit="10" points="67.5,67.5 
			67.5,82.5 82.5,82.5 82.5,70.5 79.5,67.5 		"/>
	</g>
	<g>
		
			<rect x="120.5" y="69.5" fill-rule="evenodd" clip-rule="evenodd" fill="none" stroke="#FFFFFF" stroke-miterlimit="10" width="9" height="13"/>
		
			<rect x="123.5" y="67.5" fill-rule="evenodd" clip-rule="evenodd" fill="none" stroke="#FFFFFF" stroke-miterlimit="10" width="3" height="2"/>
		
			<line fill-rule="evenodd" clip-rule="evenodd" fill="none" stroke="#FFFFFF" stroke-miterlimit="10" x1="119" y1="69.5" x2="131" y2="69.5"/>
		
			<line fill-rule="evenodd" clip-rule="evenodd" fill="none" stroke="#FFFFFF" stroke-miterlimit="10" x1="123.5" y1="73" x2="123.5" y2="79"/>
		
			<line fill-rule="evenodd" clip-rule="evenodd" fill="none" stroke="#FFFFFF" stroke-miterlimit="10" x1="126.5" y1="73" x2="126.5" y2="79"/>
	</g>
	<circle fill-rule="evenodd" clip-rule="evenodd" fill="none" stroke="#FFFFFF" stroke-miterlimit="10" cx="175" cy="75" r="7"/>
	<circle fill-rule="evenodd" clip-rule="evenodd" fill="none" stroke="#FFFFFF" stroke-miterlimit="10" cx="175" cy="75" r="3"/>
	<g>
		<circle fill="#666666" cx="225" cy="25" r="2"/>
		<circle fill="#666666" cx="231" cy="25" r="2"/>
		<circle fill="#666666" cx="219" cy="25" r="2"/>
	</g>
	<circle fill="#FFFFFF" cx="225" cy="75" r="2"/>
	<circle fill="#FFFFFF" cx="231" cy="75" r="2"/>
	<circle fill="#FFFFFF" cx="219" cy="75" r="2"/>
	<g display="none">
		<polygon display="inline" fill="#666666" points="294,21 292,18 291,18 289,21 291,21 291,25 292,25 292,21 		"/>
		<polygon display="inline" fill="#666666" points="291,24 288,24 288,22 285,24 285,25 288,27 288,25 291,25 		"/>
		<polygon display="inline" fill="#666666" points="292,25 295,25 295,27 298,25 298,24 295,22 295,24 292,24 		"/>
		<polygon display="inline" fill="#666666" points="289,28 291,31 292,31 294,28 292,28 292,25 291,25 291,28 		"/>
	</g>
	<g>
		<polygon fill="#666666" points="274,24 271,24 271,21 267,24 267,25 271,28 271,25 274,25 		"/>
		<polygon fill="#666666" points="276,25 279,25 279,28 283,25 283,24 279,21 279,24 276,24 		"/>
	</g>
	<g>
		<polygon fill="#FFFFFF" points="274,75 271,75 271,72 267,75 267,76 271,79 271,76 274,76 		"/>
		<polygon fill="#FFFFFF" points="276,76 279,76 279,79 283,76 283,75 279,72 279,75 276,75 		"/>
	</g>
</g>
</svg>
