<?xml version="1.0" encoding="utf-8"?>
<!-- Generator: Adobe Illustrator 16.0.0, SVG Export Plug-In . SVG Version: 6.00 Build 0)  -->
<!DOCTYPE svg PUBLIC "-//W3C//DTD SVG 1.1//EN" "http://www.w3.org/Graphics/SVG/1.1/DTD/svg11.dtd">
<svg version="1.1" xmlns="http://www.w3.org/2000/svg" xmlns:xlink="http://www.w3.org/1999/xlink" x="0px" y="0px" width="350px"
	 height="100px" viewBox="0 0 350 100" enable-background="new 0 0 350 100" xml:space="preserve">
<g id="Layer_1">
	<rect x="300" y="50" display="none" fill="#DB1955" width="50" height="50"/>
	<rect x="305" y="55" display="none" fill="#1AB4D8" width="40" height="40"/>
</g>
<g id="Layer_2">
	<g>
		<path fill="none" stroke="#333333" stroke-miterlimit="10" d="M22.5,15.5c0,1.1-0.9,2-2,2h-13c-1.1,0-2-0.9-2-2v-3
			c0-1.1,0.9-2,2-2h13c1.1,0,2,0.9,2,2V15.5z"/>
	</g>
	<g>
		<path fill="none" stroke="#333333" stroke-miterlimit="10" d="M44.5,37.5c0,1.1-0.9,2-2,2h-35c-1.1,0-2-0.9-2-2v-15
			c0-1.1,0.9-2,2-2h35c1.1,0,2,0.9,2,2V37.5z"/>
	</g>
	<g>
		<g>
			<path fill="none" stroke="#333333" stroke-miterlimit="10" d="M72.5,18.5c0,1.104-0.896,2-2,2h-13c-1.104,0-2-0.896-2-2v-3
				c0-1.104,0.896-2,2-2h13c1.104,0,2,0.896,2,2V18.5z"/>
		</g>
		<path fill="none" stroke="#333333" stroke-miterlimit="10" d="M59,33.75c2.038,0,3.701,1.75,3.95,3.75h0.101
			c0.249-2,1.912-3.5,3.95-3.5s3.701,1.5,3.95,3.5h0.101c0.249-2,1.912-3.5,3.95-3.5s3.701,1.5,3.95,3.5h0.101
			c0.249-2,1.912-3.5,3.95-3.5s3.701,1.5,3.95,3.5h0.101c0.249-2,1.912-3.75,3.95-3.75c1.518,0,2.822,0.605,3.5,1.851V25
			c0-1.1-0.9-1.5-2-1.5h-35c-1.1,0-2,0.4-2,1.5v10.601C56.178,34.355,57.482,33.75,59,33.75z"/>
	</g>
	<g>
		<g>
			<path fill="none" stroke="#333333" stroke-miterlimit="10" d="M122.5,32.5c0-1.1-0.9-2-2-2h-13c-1.1,0-2,0.9-2,2v3
				c0,1.1,0.9,2,2,2h13c1.1,0,2-0.9,2-2V32.5z"/>
		</g>
		<path fill="none" stroke="#333333" stroke-miterlimit="10" d="M109,17c2.038,0,3.701-1.5,3.95-3.5h0.101
			c0.249,2,1.912,3.5,3.95,3.5s3.701-1.5,3.95-3.5h0.101c0.249,2,1.912,3.5,3.95,3.5s3.701-1.5,3.95-3.5h0.101
			c0.249,2,1.912,3.5,3.95,3.5s3.701-1.5,3.95-3.5h0.101c0.249,2,1.912,3.5,3.95,3.5c1.518,0,2.822-0.855,3.5-2.101V25.5
			c0,1.1-0.9,2-2,2h-35c-1.1,0-2-0.9-2-2V14.899C106.178,16.145,107.482,17,109,17z"/>
	</g>
	<g>
		<g>
			<path fill="none" stroke="#333333" stroke-miterlimit="10" d="M177.5,15.5c0,1.1-0.9,2-2,2h-13c-1.1,0-2-0.9-2-2v-3
				c0-1.1,0.9-2,2-2h13c1.1,0,2,0.9,2,2V15.5z"/>
		</g>
		<g>
			<path fill="none" stroke="#333333" stroke-miterlimit="10" d="M189.5,37.5c0,1.1-0.9,2-2,2h-25c-1.1,0-2-0.9-2-2v-15
				c0-1.1,0.9-2,2-2h25c1.1,0,2,0.9,2,2V37.5z"/>
		</g>
	</g>
	<line fill="none" stroke="#333333" stroke-miterlimit="10" x1="160.5" y1="5" x2="160.5" y2="45"/>
	<g>
		<g>
			<path fill="none" stroke="#333333" stroke-miterlimit="10" d="M234.5,15.5c0,1.1-0.9,2-2,2h-14c-1.1,0-2-0.9-2-2v-3
				c0-1.1,0.9-2,2-2h14c1.1,0,2,0.9,2,2V15.5z"/>
		</g>
		<g>
			<path fill="none" stroke="#333333" stroke-miterlimit="10" d="M240.5,37.5c0,1.1-0.9,2-2,2h-26c-1.1,0-2-0.9-2-2v-15
				c0-1.1,0.9-2,2-2h26c1.1,0,2,0.9,2,2V37.5z"/>
		</g>
	</g>
	<line fill="none" stroke="#333333" stroke-miterlimit="10" x1="225.5" y1="5" x2="225.5" y2="11"/>
	<line fill="none" stroke="#333333" stroke-miterlimit="10" x1="225.5" y1="17" x2="225.5" y2="21"/>
	<line fill="none" stroke="#333333" stroke-miterlimit="10" x1="225.5" y1="39" x2="225.5" y2="45"/>
	<g>
		<g>
			<path fill="none" stroke="#333333" stroke-miterlimit="10" d="M277.5,15.5c0,1.1-0.9,2-2,2h-13c-1.1,0-2-0.9-2-2v-3
				c0-1.1,0.9-2,2-2h13c1.1,0,2,0.9,2,2V15.5z"/>
		</g>
		<g>
			<path fill="none" stroke="#333333" stroke-miterlimit="10" d="M289.5,37.5c0,1.1-0.9,2-2,2h-25c-1.1,0-2-0.9-2-2v-15
				c0-1.1,0.9-2,2-2h25c1.1,0,2,0.9,2,2V37.5z"/>
		</g>
	</g>
	<line fill="none" stroke="#333333" stroke-miterlimit="10" x1="289.5" y1="5" x2="289.5" y2="45"/>
	<g>
		<g>
			<path fill="none" stroke="#333333" stroke-miterlimit="10" d="M323.5,15.5c0,1.1-0.9,2-2,2h-9c-1.1,0-2-0.9-2-2v-3
				c0-1.1,0.9-2,2-2h9c1.1,0,2,0.9,2,2V15.5z"/>
		</g>
		<g>
			<path fill="none" stroke="#333333" stroke-miterlimit="10" d="M339.5,37.5c0,1.1-0.9,2-2,2h-25c-1.1,0-2-0.9-2-2v-15
				c0-1.1,0.9-2,2-2h25c1.1,0,2,0.9,2,2V37.5z"/>
		</g>
		<g>
			<path fill="none" stroke="#333333" stroke-miterlimit="10" d="M339.5,15.5c0,1.1-0.9,2-2,2h-9c-1.1,0-2-0.9-2-2v-3
				c0-1.1,0.9-2,2-2h9c1.1,0,2,0.9,2,2V15.5z"/>
		</g>
	</g>
	<line fill="none" stroke="#333333" stroke-miterlimit="10" x1="339.5" y1="5" x2="339.5" y2="45"/>
	<line fill="none" stroke="#333333" stroke-miterlimit="10" x1="310.5" y1="5" x2="310.5" y2="45"/>
	<g>
		<g>
			<path fill="none" stroke="#333333" stroke-miterlimit="10" d="M15.5,66.5c1.1,0,2-0.9,2-2v-3c0-1.1-0.9-2-2-2h-8
				c-1.1,0-2,0.9-2,2v3c0,1.1,0.9,2,2,2H15.5z"/>
		</g>
		<g>
			<path fill="none" stroke="#333333" stroke-miterlimit="10" d="M42.5,90.5c1.1,0,2-0.9,2-2v-27c0-1.1-0.9-2-2-2h-20
				c-1.1,0-2,0.9-2,2v27c0,1.1,0.9,2,2,2H42.5z"/>
		</g>
		<g>
			<path fill="none" stroke="#333333" stroke-miterlimit="10" d="M15.5,76.5c1.1,0,2-0.9,2-2v-3c0-1.1-0.9-2-2-2h-8
				c-1.1,0-2,0.9-2,2v3c0,1.1,0.9,2,2,2H15.5z"/>
		</g>
	</g>
	<g>
		<g>
			<path fill="none" stroke="#333333" stroke-miterlimit="10" d="M71.5,61.5c0-1.104-0.896-2-2-2h-8c-1.104,0-2,0.896-2,2v3
				c0,1.104,0.896,2,2,2h8c1.104,0,2-0.896,2-2V61.5z"/>
		</g>
		<g>
			<path fill="none" stroke="#333333" stroke-miterlimit="10" d="M71.5,71.5c0-1.104-0.896-2-2-2h-8c-1.104,0-2,0.896-2,2v3
				c0,1.104,0.896,2,2,2h8c1.104,0,2-0.896,2-2V71.5z"/>
		</g>
		<g>
			<path fill="none" stroke="#333333" stroke-miterlimit="10" d="M86.25,87c0-2.209,1.791-4,4-4c-2.209,0-4-1.791-4-4s1.791-4,4-4
				c-2.209,0-4-1.791-4-4s1.791-4,4-4c-2.209,0-4-1.791-4-4c0-1.518,0.855-2.822,2.101-3.5H76.75c-1.1,0-2.25,0.9-2.25,2v27
				c0,1.1,1.15,2,2.25,2h11.601C87.105,89.822,86.25,88.518,86.25,87z"/>
			<path fill="none" stroke="#333333" stroke-miterlimit="10" d="M90.25,75"/>
			<path fill="none" stroke="#333333" stroke-miterlimit="10" d="M90.25,67"/>
		</g>
	</g>
	<g>
		<g>
			<path fill="none" stroke="#333333" stroke-miterlimit="10" d="M140.5,64.5c0,1.104-0.896,2-2,2h-8c-1.104,0-2-0.896-2-2v-3
				c0-1.104,0.896-2,2-2h8c1.104,0,2,0.896,2,2V64.5z"/>
		</g>
		<g>
			<path fill="none" stroke="#333333" stroke-miterlimit="10" d="M140.5,74.5c0,1.104-0.896,2-2,2h-8c-1.104,0-2-0.896-2-2v-3
				c0-1.104,0.896-2,2-2h8c1.104,0,2,0.896,2,2V74.5z"/>
		</g>
		<g>
			<path fill="none" stroke="#333333" stroke-miterlimit="10" d="M113.75,87c0-2.209-1.791-4-4-4c2.209,0,4-1.791,4-4s-1.791-4-4-4
				c2.209,0,4-1.791,4-4s-1.791-4-4-4c2.209,0,4-1.791,4-4c0-1.518-0.855-2.822-2.101-3.5h11.601c1.1,0,2.25,0.9,2.25,2v27
				c0,1.1-1.15,2-2.25,2h-11.601C112.895,89.822,113.75,88.518,113.75,87z"/>
			<path fill="none" stroke="#333333" stroke-miterlimit="10" d="M109.75,75"/>
			<path fill="none" stroke="#333333" stroke-miterlimit="10" d="M109.75,67"/>
		</g>
	</g>
	<g>
		<g>
			<path fill="none" stroke="#333333" stroke-miterlimit="10" d="M166.5,66.5c1.1,0,2-0.9,2-2v-3c0-1.1-0.9-2-2-2h-5
				c-1.1,0-2,0.9-2,2v3c0,1.1,0.9,2,2,2H166.5z"/>
		</g>
		<g>
			<path fill="none" stroke="#333333" stroke-miterlimit="10" d="M188.5,90.5c1.1,0,2-0.9,2-2v-27c0-1.1-0.9-2-2-2h-15
				c-1.1,0-2,0.9-2,2v27c0,1.1,0.9,2,2,2H188.5z"/>
		</g>
		<g>
			<path fill="none" stroke="#333333" stroke-miterlimit="10" d="M166.5,76.5c1.1,0,2-0.9,2-2v-3c0-1.1-0.9-2-2-2h-5
				c-1.1,0-2,0.9-2,2v3c0,1.1,0.9,2,2,2H166.5z"/>
		</g>
	</g>
	<line fill="none" stroke="#333333" stroke-miterlimit="10" x1="155" y1="59.5" x2="195" y2="59.5"/>
	<g>
		<g>
			<path fill="none" stroke="#333333" stroke-miterlimit="10" d="M266.5,83.5c1.1,0,2,0.9,2,2v3c0,1.1-0.9,2-2,2h-5
				c-1.1,0-2-0.9-2-2v-3c0-1.1,0.9-2,2-2H266.5z"/>
		</g>
		<g>
			<path fill="none" stroke="#333333" stroke-miterlimit="10" d="M288.5,59.5c1.1,0,2,0.9,2,2v27c0,1.1-0.9,2-2,2h-15
				c-1.1,0-2-0.9-2-2v-27c0-1.1,0.9-2,2-2H288.5z"/>
		</g>
		<g>
			<path fill="none" stroke="#333333" stroke-miterlimit="10" d="M266.5,73.5c1.1,0,2,0.9,2,2v3c0,1.1-0.9,2-2,2h-5
				c-1.1,0-2-0.9-2-2v-3c0-1.1,0.9-2,2-2H266.5z"/>
		</g>
	</g>
	<line fill="none" stroke="#333333" stroke-miterlimit="10" x1="255" y1="90.5" x2="295" y2="90.5"/>
	<g>
		<path fill="none" stroke="#333333" stroke-miterlimit="10" d="M216.5,72.5c1.1,0,2-0.9,2-2v-3c0-1.1-0.9-2-2-2h-5
			c-1.1,0-2,0.9-2,2v3c0,1.1,0.9,2,2,2H216.5z"/>
	</g>
	<g>
		<path fill="none" stroke="#333333" stroke-miterlimit="10" d="M238.5,90.5c1.1,0,2-0.9,2-2v-27c0-1.1-0.9-2-2-2h-15
			c-1.1,0-2,0.9-2,2v27c0,1.1,0.9,2,2,2H238.5z"/>
	</g>
	<g>
		<path fill="none" stroke="#333333" stroke-miterlimit="10" d="M216.5,83.5c1.1,0,2-0.9,2-2v-3c0-1.1-0.9-2-2-2h-5
			c-1.1,0-2,0.9-2,2v3c0,1.1,0.9,2,2,2H216.5z"/>
	</g>
	<line fill="none" stroke="#333333" stroke-miterlimit="10" x1="205" y1="74.5" x2="222" y2="74.5"/>
	<line fill="none" stroke="#333333" stroke-miterlimit="10" x1="240" y1="74.5" x2="245" y2="74.5"/>
</g>
</svg>
