<?xml version="1.0" encoding="utf-8"?>
<!-- Generator: Adobe Illustrator 16.0.0, SVG Export Plug-In . SVG Version: 6.00 Build 0)  -->
<!DOCTYPE svg PUBLIC "-//W3C//DTD SVG 1.1//EN" "http://www.w3.org/Graphics/SVG/1.1/DTD/svg11.dtd">
<svg version="1.1" xmlns="http://www.w3.org/2000/svg" xmlns:xlink="http://www.w3.org/1999/xlink" x="0px" y="0px" width="200px"
	 height="150px" viewBox="0 0 200 150" enable-background="new 0 0 200 150" xml:space="preserve">
<g id="Layer_1">
	<rect y="100" display="none" fill="#DB1955" width="50" height="50"/>
	<rect x="5" y="105" display="none" fill="#1AB4D8" width="40" height="40"/>
</g>
<g id="Layer_2">
	<circle fill="none" stroke="#333333" stroke-miterlimit="10" cx="25" cy="25" r="15"/>
	<line fill="none" stroke="#333333" stroke-miterlimit="10" x1="35.75" y1="13.75" x2="14.25" y2="35.25"/>
	<g>
		<path fill="none" stroke="#333333" stroke-miterlimit="10" d="M28.5,77.5c-1.1,0-2-0.9-2-2v-7c0-1.1-0.9-2-2-2h-17
			c-1.1,0-2,0.9-2,2v7c0,1.1,0,2.9,0,4v2c0,1.1,0.9,2,2,2h35c1.1,0,2-0.9,2-2v-2c0-1.1-0.9-2-2-2H28.5z"/>
	</g>
	<line fill="none" stroke="#333333" stroke-miterlimit="10" x1="8.5" y1="69" x2="8.5" y2="77"/>
	<line fill="none" stroke="#333333" stroke-miterlimit="10" x1="11.5" y1="69" x2="11.5" y2="77"/>
	<line fill="none" stroke="#333333" stroke-miterlimit="10" x1="14.5" y1="69" x2="14.5" y2="77"/>
	<line fill="none" stroke="#333333" stroke-miterlimit="10" x1="17.5" y1="69" x2="17.5" y2="77"/>
	<line fill="none" stroke="#333333" stroke-miterlimit="10" x1="20.5" y1="69" x2="20.5" y2="77"/>
	<line fill="none" stroke="#333333" stroke-miterlimit="10" x1="23.5" y1="69" x2="23.5" y2="77"/>
	<g>
		<path fill="none" stroke="#333333" stroke-miterlimit="10" d="M85.5,77.5c-1.1,0-2-0.9-2-2v-7c0-1.1-0.9-2-2-2h-14
			c-1.1,0-2,0.9-2,2v7c0,1.1-0.9,2-2,2h-6c-1.1,0-2,0.9-2,2v2c0,1.1,0.9,2,2,2h35c1.1,0,2-0.9,2-2v-2c0-1.1-0.9-2-2-2H85.5z"/>
	</g>
	<g>
		<path fill="none" stroke="#333333" stroke-miterlimit="10" d="M122,69.5h20.5c1.1,0,2,0.9,2,2v7c0,1.1-0.9,2-2,2H122"/>
	</g>
	<g>
		<path fill="none" stroke="#333333" stroke-miterlimit="10" d="M119.5,78.5c0,1.1-0.9,2-2,2h-10c-1.1,0-2-0.9-2-2v-7
			c0-1.1,0.9-2,2-2h10c1.1,0,2,0.9,2,2V78.5z"/>
	</g>
	<line fill="none" stroke="#333333" stroke-miterlimit="10" x1="155" y1="80.5" x2="195" y2="80.5"/>
	<rect x="167.5" y="76.5" fill="none" stroke="#333333" stroke-miterlimit="10" width="15" height="2"/>
	<path fill="none" stroke="#000000" stroke-miterlimit="10" d="M27.609,117.958c-0.341,0-0.569-0.147-0.683-0.539
		c-0.341-1.176-0.91-1.765-1.708-1.765c-0.569,0-0.854,0.393-0.854,0.882c0,1.568,2.675,3.333,6.09,5.343
		c3.7,2.155,6.489,5.684,6.489,9.311c0,6.566-4.553,11.811-12.009,11.811c-8.651,0-12.635-5.392-12.635-13.231
		c0-0.245,0.228-0.49,0.683-0.49l7.854-0.344c0.398,0,0.625,0.196,0.683,0.638c0.228,1.96,1.195,4.067,2.562,4.067
		c0.796,0,1.309-0.441,1.309-1.569c0-1.176-3.188-3.331-7-5.978c-3.813-2.646-5.691-6.322-5.691-9.654
		c0-4.999,4.325-10.438,11.952-10.438C32.276,106,37,111.146,37,116.978c0,0.343-0.228,0.637-0.683,0.637L27.609,117.958z"/>
	<text transform="matrix(1 0 0 1 166 144)" display="none" fill="none" stroke="#000000" font-family="'PoplarStd'" font-size="50">L</text>
	<g>
		<path fill="none" stroke="#000000" stroke-linecap="round" stroke-linejoin="round" d="M126.5,133.5c-1.1,0-2-0.9-2-2v-24
			c0-1.1-0.9-2-2-2h-6c-1.1,0-2,0.9-2,2v24c0,1.1,0,2.9,0,4v6c0,1.1,0.9,2,2,2h6c1.1,0,2.9,0,4,0h6c1.1,0,2-0.9,2-2v-6
			c0-1.1-0.9-2-2-2H126.5z"/>
	</g>
	<g>
		<path fill="none" stroke="#000000" d="M87.5,105.5c-1.1,0-2.9,0-4,0l0,0c-1.1,0-2.9,0-4,0l0,0c-1.1,0-2.21,0.875-2.467,1.944
			l-2.066,8.611c-0.257,1.069-0.643,1.062-0.859-0.017l-1.716-8.578c-0.216-1.078-1.18-1.961-2.142-1.961s-2.65,0-3.75,0H66
			c-1.1,0-2.9,0-4,0h-2.5c-1.1,0-2,0.9-2,2v34c0,1.1,0.9,2,2,2h7c1.1,0,2-0.9,2-2v-12.625c0-1.1,0.186-1.119,0.412-0.043
			l2.676,12.711c0.227,1.076,0.975,1.957,1.662,1.957s1.925,0,2.75,0s1.686-0.881,1.912-1.957l3.176-15.086
			c0.227-1.076,0.412-1.057,0.412,0.043v15c0,1.1,0.9,2,2,2h7c1.1,0,2-0.9,2-2v-34c0-1.1-0.9-2-2-2H87.5z"/>
	</g>
	<g>
		<g>
			<path fill="none" stroke="#DD0000" stroke-miterlimit="10" d="M142.105,16.965c0.778-0.778,0.778-2.05,0-2.829l-3.242-3.242
				c-0.778-0.778-2.05-0.778-2.828,0l-13.121,13.121c-0.778,0.778-2.05,0.778-2.828,0l-5.122-5.122c-0.778-0.778-2.05-0.778-2.828,0
				l-3.243,3.243c-0.778,0.778-0.778,2.05,0,2.828l11.143,11.143c0.778,0.778,1.425,1.403,1.439,1.389
				c0.013-0.013,0.036-0.013,0.05,0c0.014,0.014,0.661-0.611,1.439-1.389L142.105,16.965z"/>
		</g>
		<g>
			<g>
				<line fill="none" stroke="#DD0000" stroke-miterlimit="10" x1="138" y1="15" x2="137.293" y2="15.707"/>
				
					<line fill="none" stroke="#DD0000" stroke-miterlimit="10" stroke-dasharray="2.0038,2.0038" x1="135.876" y1="17.124" x2="122.416" y2="30.584"/>
				<line fill="none" stroke="#DD0000" stroke-miterlimit="10" x1="121.707" y1="31.293" x2="121" y2="32"/>
			</g>
		</g>
		<g>
			<g>
				<line fill="none" stroke="#DD0000" stroke-miterlimit="10" x1="114" y1="24" x2="114.707" y2="24.707"/>
				
					<line fill="none" stroke="#DD0000" stroke-miterlimit="10" stroke-dasharray="1.6904,1.6904" x1="115.902" y1="25.902" x2="117.695" y2="27.695"/>
				<line fill="none" stroke="#DD0000" stroke-miterlimit="10" x1="118.293" y1="28.293" x2="119" y2="29"/>
			</g>
		</g>
	</g>
	<g>
		<g>
			<path fill="none" stroke="#333333" stroke-miterlimit="10" d="M87.546,34.01c0.778-0.778,0.778-2.05,0-2.828l-5.269-5.268
				c-0.778-0.778-0.778-2.05,0-2.828l5.268-5.268c0.778-0.778,0.778-2.05,0-2.828l-3.035-3.036c-0.778-0.778-2.05-0.778-2.828,0
				l-5.268,5.267c-0.778,0.778-2.05,0.778-2.828,0l-5.268-5.267c-0.778-0.778-2.05-0.778-2.828,0l-3.035,3.036
				c-0.778,0.778-0.778,2.05,0,2.828l5.267,5.268c0.778,0.778,0.778,2.05,0,2.828l-5.268,5.268c-0.778,0.778-0.778,2.05,0,2.828
				l3.035,3.036c0.778,0.778,2.05,0.778,2.828,0l5.269-5.269c0.778-0.778,2.05-0.778,2.828,0l5.269,5.269
				c0.778,0.778,2.05,0.778,2.828,0L87.546,34.01z"/>
		</g>
		
			<line fill-rule="evenodd" clip-rule="evenodd" fill="none" stroke="#333333" stroke-miterlimit="10" stroke-dasharray="2" x1="66.5" y1="33" x2="83.5" y2="16"/>
		
			<line fill-rule="evenodd" clip-rule="evenodd" fill="none" stroke="#333333" stroke-miterlimit="10" stroke-dasharray="2" x1="66.5" y1="16" x2="72.5" y2="22"/>
		
			<line fill-rule="evenodd" clip-rule="evenodd" fill="none" stroke="#333333" stroke-miterlimit="10" stroke-dasharray="2" x1="77.5" y1="27" x2="83.5" y2="33"/>
	</g>
</g>
</svg>
