<?xml version="1.0" encoding="utf-8"?>
<!-- Generator: Adobe Illustrator 16.0.0, SVG Export Plug-In . SVG Version: 6.00 Build 0)  -->
<!DOCTYPE svg PUBLIC "-//W3C//DTD SVG 1.1//EN" "http://www.w3.org/Graphics/SVG/1.1/DTD/svg11.dtd">
<svg version="1.1" xmlns="http://www.w3.org/2000/svg" xmlns:xlink="http://www.w3.org/1999/xlink" x="0px" y="0px" width="300px"
	 height="50px" viewBox="0 0 300 50" enable-background="new 0 0 300 50" xml:space="preserve">
<g id="Layer_1">
	<rect display="none" fill="#FFFFFF" width="50" height="50"/>
	<rect x="5" y="5" display="none" fill="#00CCFF" width="40" height="40"/>
</g>
<g id="Layer_2">
	<g>
		<g>
			<path fill="none" stroke="#333333" stroke-linecap="round" stroke-miterlimit="10" d="M24.947,24
				c0.423,0,6.429-10.531,6.429-13.885c0-5.485-12.856-5.485-12.856-0.011C18.519,13.473,24.535,24,24.947,24z M26.288,24.433
				c0.211,0.363,12.519,0.17,15.486-1.522c4.85-2.769-1.559-13.741-6.399-10.978C32.394,13.632,26.083,24.083,26.288,24.433z
				 M8.24,22.898c2.965,1.691,15.261,1.884,15.473,1.522c0.206-0.352-6.102-10.79-9.079-12.488
				C9.797,9.172,3.393,20.133,8.24,22.898z M24.947,26c-0.412,0-6.428,10.529-6.428,13.898c0,5.473,12.856,5.473,12.856-0.011
				C31.375,36.533,25.37,26,24.947,26z M41.773,27.091c-2.967-1.693-15.274-1.886-15.486-1.523
				c-0.205,0.351,6.106,10.799,9.087,12.5C40.215,40.831,46.623,29.858,41.773,27.091z M23.713,25.568
				c-0.211-0.363-12.52-0.17-15.486,1.522c-4.849,2.769,1.559,13.74,6.4,10.978C17.606,36.366,23.919,25.918,23.713,25.568z"/>
		</g>
	</g>
	<g>
		<path fill="#333333" d="M76.708,10.046L74.03,20.757c-0.075,0.299-0.007,0.615,0.182,0.858S74.692,22,75,22h10.066L72.653,39.525
			l3.307-11.243c0.089-0.303,0.03-0.629-0.159-0.881C75.612,27.148,75.315,27,75,27H64.914L76.708,10.046 M79,5h0.005H79z M79,5
			L63,28h12l-5,17l17-24H75L79,5L79,5z"/>
	</g>
	
		<circle fill-rule="evenodd" clip-rule="evenodd" fill="none" stroke="#333333" stroke-linecap="round" stroke-miterlimit="10" cx="118" cy="25" r="13"/>
	
		<circle fill-rule="evenodd" clip-rule="evenodd" fill="none" stroke="#333333" stroke-linecap="round" stroke-linejoin="round" stroke-miterlimit="10" stroke-dasharray="6,4" cx="132" cy="25" r="13"/>
</g>
</svg>
