<?xml version="1.0" encoding="utf-8"?>
<!-- Generator: Adobe Illustrator 16.0.0, SVG Export Plug-In . SVG Version: 6.00 Build 0)  -->
<!DOCTYPE svg PUBLIC "-//W3C//DTD SVG 1.1//EN" "http://www.w3.org/Graphics/SVG/1.1/DTD/svg11.dtd">
<svg version="1.1" id="Layer_1" xmlns="http://www.w3.org/2000/svg" xmlns:xlink="http://www.w3.org/1999/xlink" x="0px" y="0px"
	 width="1200px" height="630px" viewBox="0 0 1200 630" enable-background="new 0 0 1200 630" xml:space="preserve">
<g>
	<path fill-rule="evenodd" clip-rule="evenodd" fill="#009DE2" d="M273.137,264.224h54.121c29.054,0,39.995,14.708,38.305,36.352
		c-2.785,35.68-24.358,55.41-52.971,55.41h-14.447c-3.921,0-6.56,2.592-7.627,9.636l-6.198,40.904
		c-0.402,2.656-1.799,4.217-3.899,4.406h-33.935c-3.193,0-4.329-2.443-3.494-7.734l20.724-131.212
		C264.545,266.727,267.422,264.224,273.137,264.224z"/>
	<path fill-rule="evenodd" clip-rule="evenodd" fill="#113984" d="M508.075,261.799c18.263,0,35.107,9.9,32.802,34.591
		c-2.734,29.27-18.508,45.571-43.319,45.638h-21.644c-3.12,0-4.62,2.536-5.438,7.758l-4.177,26.64
		c-0.629,4.021-2.69,6.008-5.746,6.008h-20.156c-3.215,0-4.336-2.055-3.62-6.647l16.662-106.781
		c0.819-5.252,2.828-7.205,6.388-7.205H508.075L508.075,261.799z M475.242,318.959l16.418,0.003
		c10.264-0.388,17.088-7.496,17.775-20.323c0.424-7.921-4.925-13.588-13.441-13.548l-15.456,0.069L475.242,318.959L475.242,318.959z
		 M595.667,374.246c1.84-1.669,3.72-2.545,3.447-0.479l-0.655,4.949c-0.341,2.578,0.686,3.957,3.094,3.957h17.905
		c3.012,0,4.483-1.221,5.228-5.883l11.034-69.259c0.554-3.48-0.288-5.187-2.932-5.187h-19.688c-1.775,0-2.635,0.997-3.101,3.707
		l-0.729,4.265c-0.381,2.225-1.398,2.609-2.345,0.371c-3.344-7.912-11.863-11.459-23.81-11.213
		c-27.621,0.568-46.244,21.536-48.234,48.412c-1.54,20.792,13.36,37.117,32.993,37.117
		C582.12,385.004,588.493,380.758,595.667,374.246L595.667,374.246z M580.683,363.607c-11.89,0-20.177-9.481-18.447-21.108
		c1.729-11.626,12.837-21.108,24.726-21.108c11.89,0,20.176,9.482,18.447,21.108C603.679,354.126,592.572,363.607,580.683,363.607
		L580.683,363.607z M670.785,302.123h-18.091c-3.748,0-5.272,2.743-4.08,6.232l22.544,66.021l-22.215,31.4
		c-1.854,2.621-0.425,5.019,2.192,5.019h20.411c3.047,0,4.533-0.777,6.066-2.978l69.335-99.462c2.137-3.063,1.128-6.27-2.372-6.273
		l-19.298-0.021c-3.313-0.003-4.643,1.307-6.544,4.065l-28.921,41.957l-12.866-42.031
		C676.154,303.463,674.264,302.123,670.785,302.123z"/>
	<path fill-rule="evenodd" clip-rule="evenodd" fill="#009DE2" d="M819.108,261.799c18.264,0,35.107,9.9,32.802,34.591
		c-2.733,29.27-18.508,45.571-43.318,45.638h-21.644c-3.121,0-4.62,2.536-5.438,7.758l-4.177,26.64
		c-0.631,4.021-2.691,6.008-5.747,6.008H751.43c-3.214,0-4.335-2.055-3.619-6.647l16.661-106.781
		c0.82-5.252,2.828-7.205,6.389-7.205H819.108L819.108,261.799z M786.275,318.959l16.419,0.003
		c10.264-0.388,17.09-7.496,17.776-20.323c0.423-7.921-4.927-13.588-13.442-13.548l-15.456,0.069L786.275,318.959L786.275,318.959z
		 M906.7,374.246c1.84-1.669,3.72-2.545,3.447-0.479l-0.655,4.949c-0.341,2.578,0.688,3.957,3.094,3.957h17.906
		c3.012,0,4.485-1.221,5.227-5.883l11.035-69.259c0.554-3.48-0.288-5.187-2.932-5.187h-19.686c-1.777,0-2.637,0.997-3.101,3.707
		l-0.731,4.265c-0.381,2.225-1.398,2.609-2.345,0.371c-3.344-7.912-11.862-11.459-23.811-11.213
		c-27.621,0.568-46.242,21.536-48.234,48.412c-1.54,20.792,13.361,37.117,32.992,37.117
		C893.153,385.004,899.526,380.758,906.7,374.246L906.7,374.246z M891.717,363.607c-11.889,0-20.176-9.481-18.447-21.108
		c1.731-11.626,12.838-21.108,24.728-21.108c11.889,0,20.176,9.482,18.445,21.108C914.713,354.126,903.606,363.607,891.717,363.607
		L891.717,363.607z M974.313,382.798h-20.668c-1.641,0-2.781-1.286-2.532-2.859L969.287,264.9c0.248-1.571,1.796-2.859,3.438-2.859
		h20.667c1.643,0,2.782,1.288,2.534,2.859L977.75,379.938C977.501,381.512,975.955,382.798,974.313,382.798z"/>
	<path fill-rule="evenodd" clip-rule="evenodd" fill="#113984" d="M239.303,219.068h54.174c15.258,0,33.354,0.495,45.46,11.172
		c8.086,7.132,12.331,18.495,11.35,30.694c-3.321,41.367-28.066,64.535-61.247,64.535h-26.718c-4.548,0-7.562,3.014-8.845,11.175
		l-7.456,47.431c-0.483,3.077-1.817,4.89-4.252,5.108h-33.372c-3.703,0-5.019-2.832-4.05-8.968l24.03-152.147
		C229.34,221.971,232.675,219.068,239.303,219.068z"/>
	<path fill-rule="evenodd" clip-rule="evenodd" fill="#172C70" d="M254.254,331.863l9.461-59.878c0.83-5.26,3.707-7.762,9.422-7.762
		h54.121c8.959,0,16.197,1.397,21.871,3.976c-5.438,36.814-29.25,57.271-60.433,57.271h-26.718
		C258.46,325.47,255.833,327.268,254.254,331.863z"/>
</g>
</svg>
