<?xml version="1.0" encoding="utf-8"?>
<!-- Generator: Adobe Illustrator 16.0.0, SVG Export Plug-In . SVG Version: 6.00 Build 0)  -->
<!DOCTYPE svg PUBLIC "-//W3C//DTD SVG 1.1//EN" "http://www.w3.org/Graphics/SVG/1.1/DTD/svg11.dtd">
<svg version="1.1" xmlns="http://www.w3.org/2000/svg" xmlns:xlink="http://www.w3.org/1999/xlink" x="0px" y="0px" width="150px"
	 height="100px" viewBox="0 0 150 100" enable-background="new 0 0 150 100" xml:space="preserve">
<g id="Layer_1" display="none">
	<rect display="inline" fill="#FFFFFF" width="150" height="50"/>
	<rect y="50" display="inline" fill="#CC0055" width="150" height="50"/>
	<rect x="100" y="50" fill="#FFFFFF" width="50" height="50"/>
	<rect x="114" y="64" fill="#CC0055" width="22" height="22"/>
</g>
<g id="Layer_2">
	<path fill="none" stroke="#22AADD" stroke-miterlimit="10" d="M24.5,14v8.5c0,1.104-0.896,2-2,2H14"/>
	<path fill="none" stroke="#22AADD" stroke-miterlimit="10" d="M24.5,36v-9.5c0-1.104,0.896-2,2-2H36"/>
	<g>
		
			<rect x="72.5" y="14.5" fill-rule="evenodd" clip-rule="evenodd" fill="none" stroke="#DD0000" stroke-miterlimit="10" width="4" height="3"/>
		<path fill="none" stroke="#DD0000" stroke-miterlimit="10" d="M80.5,33.5c0,1.1-0.9,2-2,2h-8c-1.1,0-2-0.9-2-2v-16h12V33.5z"/>
		
			<line fill-rule="evenodd" clip-rule="evenodd" fill="none" stroke="#DD0000" stroke-miterlimit="10" x1="72.5" y1="22" x2="72.5" y2="31"/>
		
			<line fill-rule="evenodd" clip-rule="evenodd" fill="none" stroke="#DD0000" stroke-miterlimit="10" x1="76.5" y1="22" x2="76.5" y2="31"/>
		
			<line fill-rule="evenodd" clip-rule="evenodd" fill="none" stroke="#DD0000" stroke-miterlimit="10" x1="66" y1="17.5" x2="83" y2="17.5"/>
	</g>
	<g>
		<g>
			<path fill-rule="evenodd" clip-rule="evenodd" fill="#01BB00" d="M124,24h-1v-1h-1v1h-1v1h1v7h1v-7h1V24z M126,28h-2v1h2V28z
				 M120,26h1v-1h-1V26z M125,26v-1h-1v1H125z M133.731,23.631C133.211,19.334,129.504,16,125,16c-3.756,0-6.952,2.321-8.216,5.583
				C115.18,22.04,114,23.481,114,25.208c0,1.908,1.138,3.526,3,3.792h4v-1h-3c-0.187-0.038-1.066-0.232-1.236-0.305
				c-0.221-0.094-0.419-0.222-0.604-0.366c-0.041-0.032-0.08-0.063-0.119-0.097c-0.178-0.155-0.342-0.324-0.475-0.518
				c-0.001-0.001-0.001-0.002-0.002-0.003c-0.129-0.19-0.225-0.401-0.302-0.622c-0.02-0.055-0.036-0.11-0.053-0.167
				c-0.063-0.229-0.109-0.466-0.109-0.715c0-0.22,0.034-0.431,0.084-0.636c0.015-0.057,0.035-0.111,0.053-0.167
				c0.049-0.152,0.107-0.297,0.181-0.436c0.025-0.047,0.049-0.093,0.077-0.139c0.1-0.166,0.214-0.32,0.346-0.461
				c0.008-0.007,0.013-0.016,0.021-0.023c0.45-0.467,1.066-0.767,1.757-0.825c0.112-0.376,0.257-0.738,0.425-1.087
				c0.308-0.642,0.702-1.234,1.172-1.762c0.002-0.002,0.005-0.004,0.007-0.006c0.23-0.259,0.479-0.503,0.744-0.729
				c0.005-0.004,0.009-0.008,0.014-0.013c0.264-0.223,0.541-0.43,0.834-0.617c0.02-0.013,0.041-0.024,0.061-0.036
				c0.259-0.163,0.528-0.308,0.807-0.439c0.052-0.025,0.103-0.051,0.155-0.074c0.302-0.134,0.61-0.253,0.931-0.349
				c0.033-0.01,0.067-0.016,0.101-0.025c0.282-0.08,0.571-0.142,0.866-0.19c0.085-0.014,0.17-0.027,0.255-0.039
				c0.332-0.043,0.669-0.073,1.013-0.073c0.459,0,0.905,0.046,1.342,0.123c0.042,0.007,0.084,0.011,0.126,0.019
				c0.415,0.079,0.816,0.196,1.205,0.337c0.052,0.02,0.104,0.037,0.157,0.057c0.382,0.148,0.746,0.328,1.096,0.532
				c0.044,0.026,0.089,0.052,0.133,0.08c0.352,0.216,0.685,0.457,0.996,0.724c0.025,0.022,0.049,0.044,0.074,0.067
				c1.574,1.389,2.571,3.399,2.571,5.645c0,0.035-0.008,0.067-0.009,0.102c0.176-0.062,0.361-0.102,0.559-0.102
				c0.72,0,1.326,0.458,1.551,1.091c0.01,0.024,0.016,0.048,0.023,0.073c0.045,0.147,0.076,0.3,0.076,0.461
				c0,0.561-0.289,1.056-0.728,1.348C133.909,27.814,133.342,28,133,28h-4v1h5c1.255-0.251,2-1.398,2-2.708
				C136,24.958,135.02,23.856,133.731,23.631z M125,32v1h1v-1H125z M129,33h1v-1h-1V33z M128,26h-1v7h-1v1h1v1h1v-1h1v-1h-1V26z"/>
		</g>
	</g>
	<path fill="none" stroke="#FFFFFF" stroke-miterlimit="10" d="M24.5,64v8.5c0,1.104-0.896,2-2,2H14"/>
	<path fill="none" stroke="#FFFFFF" stroke-miterlimit="10" d="M24.5,86v-9.5c0-1.104,0.896-2,2-2H36"/>
	<g>
		
			<rect x="72.5" y="64.5" fill-rule="evenodd" clip-rule="evenodd" fill="none" stroke="#FFFFFF" stroke-miterlimit="10" width="4" height="3"/>
		<path fill="none" stroke="#FFFFFF" stroke-miterlimit="10" d="M80.5,83.5c0,1.1-0.9,2-2,2h-8c-1.1,0-2-0.9-2-2v-16h12V83.5z"/>
		
			<line fill-rule="evenodd" clip-rule="evenodd" fill="none" stroke="#FFFFFF" stroke-miterlimit="10" x1="72.5" y1="72" x2="72.5" y2="81"/>
		
			<line fill-rule="evenodd" clip-rule="evenodd" fill="none" stroke="#FFFFFF" stroke-miterlimit="10" x1="76.5" y1="72" x2="76.5" y2="81"/>
		
			<line fill-rule="evenodd" clip-rule="evenodd" fill="none" stroke="#FFFFFF" stroke-miterlimit="10" x1="66" y1="67.5" x2="83" y2="67.5"/>
	</g>
	<g>
		<g>
			<path fill-rule="evenodd" clip-rule="evenodd" fill="#FFFFFF" d="M124,74h-1v-1h-1v1h-1v1h1v7h1v-7h1V74z M126,78h-2v1h2V78z
				 M120,76h1v-1h-1V76z M125,76v-1h-1v1H125z M133.731,73.631C133.211,69.334,129.504,66,125,66c-3.756,0-6.952,2.32-8.216,5.582
				C115.18,72.04,114,73.48,114,75.209c0,1.907,1.138,3.525,3,3.791h4v-1h-3c-0.187-0.037-1.066-0.232-1.236-0.305
				c-0.221-0.094-0.419-0.222-0.604-0.365c-0.041-0.032-0.08-0.063-0.119-0.098c-0.178-0.154-0.342-0.323-0.475-0.518
				c-0.001-0.001-0.001-0.002-0.002-0.003c-0.129-0.19-0.225-0.401-0.302-0.622c-0.02-0.055-0.036-0.109-0.053-0.166
				c-0.063-0.229-0.109-0.467-0.109-0.715c0-0.221,0.034-0.432,0.084-0.637c0.015-0.057,0.035-0.11,0.053-0.166
				c0.049-0.152,0.107-0.297,0.181-0.436c0.025-0.047,0.049-0.094,0.077-0.139c0.1-0.166,0.214-0.32,0.346-0.461
				c0.008-0.008,0.013-0.016,0.021-0.023c0.45-0.467,1.066-0.767,1.757-0.824c0.112-0.377,0.257-0.738,0.425-1.088
				c0.308-0.642,0.702-1.234,1.172-1.762c0.002-0.002,0.005-0.004,0.007-0.006c0.23-0.26,0.479-0.504,0.744-0.73
				c0.005-0.004,0.009-0.008,0.014-0.012c0.264-0.224,0.541-0.43,0.834-0.617c0.02-0.014,0.041-0.024,0.061-0.037
				c0.259-0.162,0.528-0.307,0.807-0.438c0.052-0.024,0.103-0.051,0.155-0.074c0.302-0.134,0.61-0.253,0.931-0.349
				c0.033-0.01,0.067-0.016,0.101-0.025c0.282-0.08,0.571-0.143,0.866-0.189c0.085-0.015,0.17-0.027,0.255-0.039
				c0.332-0.043,0.669-0.072,1.013-0.072c0.459,0,0.905,0.046,1.342,0.122c0.042,0.007,0.084,0.011,0.126,0.019
				c0.415,0.079,0.816,0.195,1.205,0.338c0.052,0.02,0.104,0.036,0.157,0.057c0.382,0.148,0.746,0.328,1.096,0.532
				c0.044,0.026,0.089,0.052,0.133,0.079c0.352,0.217,0.685,0.457,0.996,0.725c0.025,0.021,0.049,0.045,0.074,0.066
				c1.574,1.389,2.571,3.4,2.571,5.645c0,0.035-0.008,0.068-0.009,0.103c0.176-0.062,0.361-0.103,0.559-0.103
				c0.72,0,1.326,0.458,1.551,1.092c0.01,0.023,0.016,0.048,0.023,0.072c0.045,0.147,0.076,0.301,0.076,0.461
				c0,0.562-0.289,1.057-0.728,1.348C133.909,77.814,133.342,78,133,78h-4v1h5c1.255-0.251,2-1.398,2-2.709
				C136,74.959,135.02,73.855,133.731,73.631z M125,82v1h1v-1H125z M129,83h1v-1h-1V83z M128,76h-1v7h-1v1h1v1h1v-1h1v-1h-1V76z"/>
		</g>
	</g>
</g>
</svg>
