<?xml version="1.0" encoding="utf-8"?>
<!-- Generator: Adobe Illustrator 16.0.0, SVG Export Plug-In . SVG Version: 6.00 Build 0)  -->
<!DOCTYPE svg PUBLIC "-//W3C//DTD SVG 1.1//EN" "http://www.w3.org/Graphics/SVG/1.1/DTD/svg11.dtd">
<svg version="1.1" xmlns="http://www.w3.org/2000/svg" xmlns:xlink="http://www.w3.org/1999/xlink" x="0px" y="0px" width="200px"
	 height="50px" viewBox="0 0 200 50" enable-background="new 0 0 200 50" xml:space="preserve">
<g id="Layer_1" display="none">
	<rect x="9" y="9" fill="#CCCCCC" width="32" height="32"/>
	<rect display="inline" fill="#CC0055" width="200" height="50"/>
</g>
<g id="Layer_2">
	<g display="none">
		<g display="inline">
			<path fill="none" stroke="#FFFFFF" stroke-linecap="round" stroke-linejoin="round" stroke-miterlimit="10" d="M23.5,21.5
				c0,1.104-0.896,2-2,2h-8c-1.104,0-2-0.896-2-2v-8c0-1.104,0.896-2,2-2h8c1.104,0,2,0.896,2,2V21.5z"/>
		</g>
		<g display="inline">
			<path fill="none" stroke="#FFFFFF" stroke-linecap="round" stroke-linejoin="round" stroke-miterlimit="10" d="M38.5,21.5
				c0,1.104-0.896,2-2,2h-8c-1.104,0-2-0.896-2-2v-8c0-1.104,0.896-2,2-2h8c1.104,0,2,0.896,2,2V21.5z"/>
		</g>
		<g display="inline">
			<path fill="none" stroke="#FFFFFF" stroke-linecap="round" stroke-linejoin="round" stroke-miterlimit="10" d="M23.5,36.5
				c0,1.104-0.896,2-2,2h-8c-1.104,0-2-0.896-2-2v-8c0-1.104,0.896-2,2-2h8c1.104,0,2,0.896,2,2V36.5z"/>
		</g>
		<g display="inline">
			<path fill="none" stroke="#FFFFFF" stroke-linecap="round" stroke-linejoin="round" stroke-miterlimit="10" d="M38.5,36.5
				c0,1.104-0.896,2-2,2h-8c-1.104,0-2-0.896-2-2v-8c0-1.104,0.896-2,2-2h8c1.104,0,2,0.896,2,2V36.5z"/>
		</g>
	</g>
	<g display="none">
		<g display="inline">
			<path fill="none" stroke="#FFFFFF" stroke-miterlimit="10" d="M138.5,36.5c0,1.1-0.9,2-2,2h-23c-1.1,0-2-0.9-2-2v-23
				c0-1.1,0.9-2,2-2h23c1.1,0,2,0.9,2,2V36.5z"/>
		</g>
		<line display="inline" fill="none" stroke="#FFFFFF" stroke-miterlimit="10" x1="115" y1="17.5" x2="128" y2="17.5"/>
		<line display="inline" fill="none" stroke="#FFFFFF" stroke-miterlimit="10" x1="115" y1="21.5" x2="132" y2="21.5"/>
		<line display="inline" fill="none" stroke="#FFFFFF" stroke-miterlimit="10" x1="115" y1="25.5" x2="123" y2="25.5"/>
	</g>
	<g display="none">
		<g display="inline">
			<path fill="none" stroke="#FFFFFF" stroke-miterlimit="10" d="M88.5,36.5c0,1.1-0.9,2-2,2h-23c-1.1,0-2-0.9-2-2v-14
				c0-1.1,0.9-2,2-2h23c1.1,0,2,0.9,2,2V36.5z"/>
		</g>
		<g display="inline">
			<path fill="none" stroke="#FFFFFF" stroke-miterlimit="10" d="M76.5,15.5c0,1.1-0.9,2-2,2h-11c-1.1,0-2-0.9-2-2v-2
				c0-1.1,0.9-2,2-2h11c1.1,0,2,0.9,2,2V15.5z"/>
		</g>
		<line display="inline" fill="none" stroke="#FFFFFF" stroke-miterlimit="10" x1="65" y1="25.5" x2="78" y2="25.5"/>
		<line display="inline" fill="none" stroke="#FFFFFF" stroke-miterlimit="10" x1="65" y1="29.5" x2="82" y2="29.5"/>
	</g>
	<rect x="63.5" y="13.5" fill="none" stroke="#FFFFFF" stroke-miterlimit="10" width="9" height="9"/>
	<circle fill="none" stroke="#FFFFFF" stroke-miterlimit="10" cx="82" cy="18" r="4.5"/>
	<rect x="67.5" y="27.5" fill="none" stroke="#FFFFFF" stroke-miterlimit="10" width="1" height="9"/>
	<rect x="63.5" y="31.5" fill="none" stroke="#FFFFFF" stroke-miterlimit="10" width="9" height="1"/>
	<polygon fill="none" stroke="#FFFFFF" stroke-miterlimit="10" points="86,36.5 77,36.5 81.5,28.5 	"/>
	<g>
		
			<rect x="122.384" y="12.116" transform="matrix(0.7071 0.7071 -0.7071 0.7071 52.5092 -82.5359)" fill="none" stroke="#FFFFFF" stroke-miterlimit="10" width="7.001" height="20"/>
		<polygon fill="none" stroke="#FFFFFF" stroke-miterlimit="10" points="114.57,33.43 116.338,26.712 121.288,31.662 		"/>
	</g>
	<line fill="none" stroke="#FFFFFF" stroke-miterlimit="10" x1="113" y1="37.5" x2="137" y2="37.5"/>
	<line fill="none" stroke="#FFFFFF" stroke-miterlimit="10" x1="128" y1="33.5" x2="137" y2="33.5"/>
	
		<rect x="13.5" y="13.5" fill="none" stroke="#FFFFFF" stroke-linecap="round" stroke-linejoin="round" stroke-miterlimit="10" width="5" height="5"/>
	
		<rect x="22.5" y="22.5" fill="none" stroke="#FFFFFF" stroke-linecap="round" stroke-linejoin="round" stroke-miterlimit="10" width="5" height="5"/>
	
		<rect x="31.5" y="13.5" fill="none" stroke="#FFFFFF" stroke-linecap="round" stroke-linejoin="round" stroke-miterlimit="10" width="5" height="5"/>
	
		<rect x="13.5" y="22.5" fill="none" stroke="#FFFFFF" stroke-linecap="round" stroke-linejoin="round" stroke-miterlimit="10" width="5" height="5"/>
	
		<rect x="22.5" y="13.5" fill="none" stroke="#FFFFFF" stroke-linecap="round" stroke-linejoin="round" stroke-miterlimit="10" width="5" height="5"/>
	
		<rect x="31.5" y="22.5" fill="none" stroke="#FFFFFF" stroke-linecap="round" stroke-linejoin="round" stroke-miterlimit="10" width="5" height="5"/>
	
		<rect x="22.5" y="31.5" fill="none" stroke="#FFFFFF" stroke-linecap="round" stroke-linejoin="round" stroke-miterlimit="10" width="5" height="5"/>
	
		<rect x="13.5" y="31.5" fill="none" stroke="#FFFFFF" stroke-linecap="round" stroke-linejoin="round" stroke-miterlimit="10" width="5" height="5"/>
	
		<rect x="31.5" y="31.5" fill="none" stroke="#FFFFFF" stroke-linecap="round" stroke-linejoin="round" stroke-miterlimit="10" width="5" height="5"/>
	<g display="none">
		<circle display="inline" fill="none" stroke="#FFFFFF" stroke-miterlimit="10" cx="175" cy="25" r="13.5"/>
		<g display="inline">
			<line fill="none" stroke="#FFFFFF" stroke-miterlimit="10" x1="170" y1="30.5" x2="179" y2="30.5"/>
			<path fill="none" stroke="#FFFFFF" stroke-miterlimit="10" d="M179,22c0-5-6.5-4.5-6.5-0.5c0,3,0,8.5,0,8.5"/>
			<line fill="none" stroke="#FFFFFF" stroke-miterlimit="10" x1="170" y1="24.5" x2="176" y2="24.5"/>
		</g>
	</g>
	<rect x="162.5" y="11.5" fill="none" stroke="#FFFFFF" stroke-miterlimit="10" width="25" height="14"/>
	<circle fill="none" stroke="#FFFFFF" stroke-miterlimit="10" cx="175" cy="19" r="2"/>
	<line fill="none" stroke="#FFFFFF" stroke-miterlimit="10" x1="166" y1="15.5" x2="171" y2="15.5"/>
	<line fill="none" stroke="#FFFFFF" stroke-miterlimit="10" x1="179" y1="21.5" x2="184" y2="21.5"/>
	<line fill="none" stroke="#FFFFFF" stroke-miterlimit="10" x1="174.5" y1="25" x2="174.5" y2="38"/>
	<path fill="none" stroke="#FFFFFF" stroke-miterlimit="10" d="M174.5,34.348c1.846-7.085,6.085-2.968,8.5-4.348
		C183.297,34.003,177.646,36.51,174.5,34.348z"/>
</g>
</svg>
